HIERARCHY
ROOT Hips
{
	OFFSET 0.000000 0.000000 0.000000
	CHANNELS 6 Xposition Yposition Zposition Zrotation Yrotation Xrotation 
	JOINT LHipJoint
	{
		OFFSET 0.000000 0.000000 0.000000
		CHANNELS 3 Zrotation Yrotation Xrotation
		JOINT LeftUpLeg
		{
			OFFSET 1.363060 -1.794630 0.839290
			CHANNELS 3 Zrotation Yrotation Xrotation
			JOINT LeftLeg
			{
				OFFSET 2.448110 -6.726130 0.000000
				CHANNELS 3 Zrotation Yrotation Xrotation
				JOINT LeftFoot
				{
					OFFSET 2.562200 -7.039590 0.000000
					CHANNELS 3 Zrotation Yrotation Xrotation
					JOINT LeftToeBase
					{
						OFFSET 0.157640 -0.433110 2.322550
						CHANNELS 3 Zrotation Yrotation Xrotation
						End Site
						{
							OFFSET 0.000000 0.000000 0.000000
						}
					}
				}
			}
		}
	}
	JOINT RHipJoint
	{
		OFFSET 0.000000 0.000000 0.000000
		CHANNELS 3 Zrotation Yrotation Xrotation
		JOINT RightUpLeg
		{
			OFFSET -1.305520 -1.794630 0.839290
			CHANNELS 3 Zrotation Yrotation Xrotation
			JOINT RightLeg
			{
				OFFSET -2.542530 -6.985550 0.000000
				CHANNELS 3 Zrotation Yrotation Xrotation
				JOINT RightFoot
				{
					OFFSET -2.568260 -7.056230 0.000000
					CHANNELS 3 Zrotation Yrotation Xrotation
					JOINT RightToeBase
					{
						OFFSET -0.164730 -0.452590 2.363150
						CHANNELS 3 Zrotation Yrotation Xrotation
						End Site
						{
							OFFSET 0.000000 0.000000 0.000000
						}
					}
				}
			}
		}
	}
}
MOTION
Frames: 25
Frame Time: 0.008333
13.452975 16.945071 1.590788 -176.032894 -81.984226 -173.490414 -11.685476 6.464063 0.979994 -7.541875 10.996802 7.997430 -1.071012 1.855987 19.160499 0.627502 -11.520390 29.085886 -6.809600 0.000000 -78.739401 7.291791 -0.941604 5.608819 15.568424 12.542646 -29.534756 3.452507 0.522566 11.496310 -0.357753 -1.035077 -3.261694 -0.604200 -0.000000 -0.143700
13.263640 16.943022 1.593371 -171.243705 -81.814934 -178.374439 -11.749026 6.475135 0.960171 -6.488822 11.701383 7.110419 -0.948731 1.908162 21.252244 0.748805 -12.406409 30.364843 -7.584500 0.000000 -75.758700 7.360862 -1.073970 5.540916 16.509925 12.110096 -29.258258 3.521015 0.347106 12.459207 -0.230703 -0.499584 -2.799974 179.445100 -0.000000 -1.305400
13.078785 16.942845 1.593903 -166.980237 -81.655056 177.264724 -11.809051 6.444960 0.915426 -5.483715 12.419364 6.149631 -0.823475 1.950387 23.467970 0.870027 -12.940242 31.471798 -8.147799 0.000000 -72.191400 7.402993 -1.210521 5.481769 17.373394 11.729995 -28.951057 3.591447 0.188894 13.398322 -0.119101 0.086311 -2.686989 179.526200 0.000000 -2.863900
12.898074 16.944634 1.593434 -162.886125 -81.497894 173.081267 -11.870916 6.373979 0.839618 -4.478654 13.162270 5.097253 -0.692568 1.986593 25.815138 0.991288 -13.038433 32.364585 -8.424200 -0.000000 -68.287200 7.409539 -1.346299 5.447120 18.190330 11.476542 -28.567461 3.668456 0.059216 14.227107 -0.037829 0.615138 -2.884714 179.611900 0.000000 -4.689400
12.722254 16.948357 1.590366 -159.461633 -81.342633 169.572695 -11.932206 6.276903 0.745597 -3.586926 13.849893 3.988680 -0.561970 2.024455 28.234878 1.109056 -12.551674 32.970311 -8.294500 0.000000 -64.340000 7.389465 -1.468388 5.421391 18.897763 11.306083 -28.122410 3.741883 -0.043205 14.970063 0.017579 1.088802 -3.345492 179.693800 0.000000 -6.438599
12.551046 16.954136 1.585108 -156.521521 -81.193930 166.558604 -11.987724 6.157533 0.636353 -2.800637 14.460558 2.825625 -0.431216 2.068299 30.707871 1.223983 -11.454269 33.248875 -7.730000 0.000000 -60.624599 7.349229 -1.572446 5.408577 19.511156 11.232186 -27.594963 3.811549 -0.113979 15.571365 0.042167 1.451171 -3.993352 179.759800 -0.000000 -8.082200
12.384250 16.962105 1.577500 -154.079521 -81.060536 164.053769 -12.031230 6.022888 0.520057 -2.146215 14.956442 1.620307 -0.301760 2.121975 33.200390 1.336839 -9.758552 33.161932 -6.741400 0.000000 -57.322900 7.300085 -1.654578 5.402848 20.024475 11.226610 -26.985865 3.873936 -0.153369 16.012707 0.038083 1.689993 -4.753038 179.808400 -0.000000 -9.521400
12.221516 16.972395 1.567613 -152.052655 -80.952739 161.975847 -12.058459 5.877054 0.403549 -1.627016 15.313728 0.381472 -0.174030 2.186980 35.682398 1.448735 -7.545070 32.678008 -5.398500 0.000001 -54.498900 7.250046 -1.715336 5.401892 20.444202 11.268433 -26.292705 3.927466 -0.161626 16.265970 0.007471 1.792842 -5.546049 179.841000 0.000000 -10.698100
12.062472 16.985173 1.555539 -150.396374 -80.879302 160.279329 -12.066969 5.724921 0.294006 -1.246985 15.514420 -0.881711 -0.049310 2.263536 38.120926 1.560596 -4.939608 31.782013 -3.814300 -0.000001 -52.107200 7.206732 -1.756381 5.400933 20.774023 11.326308 -25.521109 3.970576 -0.140752 16.319399 -0.044366 1.767441 -6.303255 179.862099 0.000000 -11.570000
11.906638 17.000479 1.541368 -149.056400 -80.846210 158.909784 -12.056626 5.570657 0.197609 -1.000557 15.550299 -2.160967 0.070877 2.350208 40.482169 1.672761 -2.100230 30.480453 -2.128400 -0.000000 -50.033700 7.174998 -1.780835 5.396707 21.020922 11.375105 -24.677559 4.002788 -0.093063 16.165990 -0.111288 1.628440 -6.967679 179.875500 -0.000000 -12.134800
11.753649 17.018374 1.525203 -148.011673 -80.856004 157.844790 -12.028608 5.418739 0.119851 -0.881386 15.419412 -3.447423 0.184301 2.444590 42.731229 1.784937 0.808088 28.808310 -0.482800 -0.000000 -48.151600 7.158751 -1.791412 5.385294 21.189564 11.390525 -23.773026 4.024047 -0.021790 15.812708 -0.185652 1.403296 -7.500467 179.883800 0.000000 -12.418300
11.602971 17.038751 1.507206 -147.234990 -80.907054 157.058814 -11.985550 5.272518 0.065312 -0.875936 15.125929 -4.732593 0.288765 2.543011 44.834499 1.895954 3.631462 26.825660 0.999700 -0.000000 -46.349901 7.159151 -1.791173 5.365166 21.286876 11.360042 -22.817673 4.035324 0.070045 15.270200 -0.260630 1.119504 -7.879626 179.887500 -0.000000 -12.476600
11.454341 17.061453 1.487501 -146.728539 -80.994795 156.552889 -11.930519 5.134752 0.037126 -0.970429 14.679365 -6.007635 0.381843 2.641633 46.762043 2.003615 6.244875 24.610548 2.231500 0.000000 -44.538300 7.176233 -1.782100 5.334931 21.318165 11.276819 -21.823047 4.037832 0.178913 14.559746 -0.329862 0.808236 -8.101862 179.886300 -0.000000 -12.381500
11.307387 17.086206 1.466247 -146.502538 -81.111487 156.339140 -11.867014 5.007151 0.037190 -1.148993 14.093348 -7.264673 0.461296 2.736518 48.488843 2.104960 8.560053 22.251441 3.167300 -0.000001 -42.690600 7.208241 -1.765682 5.294663 21.289167 11.143009 -20.801484 4.033218 0.301378 13.707984 -0.388532 0.498081 -8.179292 179.879500 0.000000 -12.209800
11.161885 17.112669 1.443669 -146.579636 -81.247700 156.441000 -11.798679 4.890327 0.066051 -1.394973 13.385065 -8.496857 0.525287 2.824256 49.996698 2.196389 10.526196 19.833263 3.800800 -0.000000 -40.797200 7.252036 -1.742983 5.245199 21.205556 10.966164 -19.764713 4.023164 0.433982 12.746390 -0.433636 0.213050 -8.136305 179.867400 -0.000000 -12.036200
11.017673 17.140391 1.420000 -146.982467 -81.392921 156.882386 -11.729327 4.783454 0.122633 -1.690851 12.574459 -9.698292 0.572602 2.902045 51.273770 2.274546 12.126516 17.433172 4.157100 0.000000 -38.904600 7.303015 -1.714995 5.187696 21.074860 10.757675 -18.722800 4.009469 0.573480 11.707471 -0.464045 -0.029376 -8.004430 179.851200 0.000000 -11.924200
10.874718 17.168914 1.395572 -147.727955 -81.537058 157.679691 -11.662918 4.684688 0.204660 -2.018910 11.684783 -10.866403 0.602673 2.968138 52.318784 2.335945 13.367360 15.096727 4.276300 0.000000 -36.959700 7.355518 -1.683210 5.124596 20.904564 10.531400 -17.684607 3.993620 0.716966 10.621234 -0.480498 -0.221039 -7.815173 179.832600 0.000000 -11.913300
10.732885 17.197745 1.370796 -148.806266 -81.670546 158.824536 -11.603252 4.590126 0.308721 -2.360564 10.737912 -11.998113 0.615958 3.020647 53.131955 2.379809 14.280955 12.871128 4.213000 0.000000 -35.075199 7.403371 -1.649671 5.057145 20.706141 10.298691 -16.656520 3.977360 0.861917 9.513285 -0.484739 -0.359376 -7.597696 179.813600 0.000000 -12.031800
10.592203 17.226406 1.346011 -150.202825 -81.787538 160.301007 -11.553504 4.495807 0.431478 -2.701215 9.755722 -13.094667 0.613318 3.058547 53.723362 2.406038 14.909621 10.764638 4.015700 -0.000000 -33.192100 7.441337 -1.617190 4.987219 20.488110 10.066340 -15.644446 3.961655 1.006106 8.404175 -0.478987 -0.447177 -7.373025 179.795900 -0.000000 -12.272200
10.452672 17.254478 1.321719 -151.838664 -81.882348 162.029608 -11.515442 4.395555 0.568013 -3.021966 8.758716 -14.157119 0.596719 3.080482 54.104929 2.417129 15.306801 8.786208 3.731501 -0.000000 -31.408300 7.465299 -1.589044 4.915502 20.265232 9.838451 -14.651178 3.947872 1.147657 7.305200 -0.465810 -0.492911 -7.151989 179.780200 -0.000000 -12.619400
10.314276 17.281592 1.298294 -153.643105 -81.954448 163.938486 -11.489062 4.285039 0.715230 -3.312196 7.763700 -15.189336 0.567970 3.085547 54.293250 2.416549 15.528201 6.919969 3.395000 -0.000000 -29.672300 7.474387 -1.568831 4.842535 20.046393 9.608757 -13.681229 3.936462 1.284781 6.225028 -0.446559 -0.502025 -6.936181 179.766700 -0.000000 -13.033200
10.177087 17.307514 1.276089 -155.515739 -82.003461 165.925105 -11.472261 4.160173 0.869722 -3.560944 6.784882 -16.195275 0.529150 3.073084 54.305307 2.409097 15.629411 5.150786 3.033000 0.000000 -27.997300 7.470352 -1.559449 4.767851 19.842001 9.367327 -12.738298 3.927854 1.415764 5.167573 -0.421897 -0.479930 -6.718034 179.754900 0.000000 -13.468999
10.040920 17.332023 1.255408 -157.337367 -82.028827 167.871400 -11.461123 4.018552 1.028288 -3.758055 5.835237 -17.180685 0.482080 3.043068 54.158783 2.399813 15.659507 3.460960 2.662900 -0.000000 -26.395499 7.457309 -1.562789 4.690790 19.662703 9.102518 -11.826126 3.922595 1.539344 4.133473 -0.391589 -0.429559 -6.484137 179.743900 -0.000000 -13.878800
9.905846 17.355036 1.236465 -159.020139 -82.030333 169.686851 -11.451260 3.860244 1.189174 -3.898108 4.924668 -18.150314 0.428152 2.996269 53.869606 2.393545 15.659656 1.834488 2.294600 -0.000000 -24.854200 7.440632 -1.579464 4.610280 19.514589 8.799895 -10.950045 3.920947 1.654108 3.126348 -0.354348 -0.348872 -6.219019 179.733200 0.000000 -14.217600
9.771733 17.376532 1.219261 -160.516704 -82.007773 171.324108 -11.439083 3.687273 1.352043 -3.981292 4.059425 -19.109119 0.368411 2.933954 53.451112 2.394463 15.660872 0.261432 1.933500 -0.000000 -23.361800 7.425212 -1.609197 4.525274 19.398970 8.445961 -10.117687 3.923145 1.758880 2.153201 -0.308332 -0.230893 -5.910639 179.723200 -0.000000 -14.454499
